<?xml version="1.0" encoding="UTF-8"?>
<svg id="Camada_1" data-name="Camada 1" xmlns="http://www.w3.org/2000/svg" viewBox="0 0 2000 2000">
  <defs>
    <style>
      .cls-1, .cls-2 {
        fill: #fff;
      }

      .cls-3 {
        letter-spacing: -.02em;
      }

      .cls-4 {
        letter-spacing: -.03em;
      }

      .cls-5 {
        letter-spacing: -.03em;
      }

      .cls-6 {
        letter-spacing: -.04em;
      }

      .cls-7 {
        letter-spacing: -.04em;
      }

      .cls-2 {
        font-family: BethaRegular, Betha;
        font-size: 135.77px;
      }
    </style>
  </defs>
  <text class="cls-2" transform="translate(301.81 1777.26)"><tspan class="cls-4" x="0" y="0">UNION </tspan><tspan class="cls-7" x="441.09" y="0">O</tspan><tspan class="cls-5" x="535.58" y="0">A</tspan><tspan class="cls-3" x="631.43" y="0">SIS FORE</tspan><tspan class="cls-6" x="1238.43" y="0">S</tspan><tspan class="cls-3" x="1328.31" y="0">T</tspan></text>
  <path class="cls-1" d="M1222.55,268.68c12.85-25.83,3.97-60.19-19.58-76.78-6.44-5.29-14.2-8.46-21.92-11.38-8.43-3.7-17.72-5.12-26.89-4.7-5.47-.51-10.81.67-16.08,1.9-2.6-1.31-4.93-4.06-8.14-3.21-2.71.11-4.28,3.39-6.8,3.38-4.3-5.45-8.8-10.93-14.63-14.82-5.68-3.39-11.69-6.4-18.18-7.89-13.22-2.92-27.05-2.5-40.23.48-8.16,1.21-15.62,4.86-23.51,7.07-3.38-6.32-7.06-12.5-10.02-19.03,3.51-6.78,6.52-13.82,10.12-20.57-4.01-7.93-8.45-15.63-12.34-23.62-.61-1.25-1.42-2.4-2.41-3.38h-.71c-3.98,6.52-6.83,13.66-10.77,20.22-1.36,2.71-4.04,5.57-2.64,8.82,2.7,6.32,6.43,12.15,9.3,18.4-3.85,6.16-6.47,13.02-10.41,19.1-17.64-7.09-36.85-10.97-55.88-8.9-12,1.64-23.77,6.5-32.63,14.87-2.85,2.69-4.85,6.1-7.38,9.05-2.85.4-4.55-3.34-7.53-3.03-3.01-.61-5.3,1.6-7.67,3-2.52.03-4.86-1.24-7.36-1.54-19.38-2.11-39.54,2.89-55.41,14.31-21.1,13.66-31.72,41.25-26.11,65.6,2.43,8.98,6.41,17.62,12.08,25.03-3.92,3.45-7.2,7.56-9.46,12.28.25.31.75.93,1,1.24,4.97-.63,10.17-1.11,14.93.85,4.76,1.56,7.58,6.03,10.16,10.03-3.66,4.4-3.77,11.6.63,15.55,2.54,3.05,6.85,2.14,10.34,2.79,6.91,7.81,15.31,15.64,26.13,16.94-.53,2.25-1.93,4.77-.54,7,.76,1.69,2.4,2.67,3.84,3.72,2.44-.25,6.31-.98,6.97,2.37-1.47,3.6-4.87,5.85-7.28,8.8-1.25.82-1.73,2.92-.27,3.77,4.31,1.47,8.77,2.4,13.15,3.62,1.54.19,1.73,1.83,2.28,2.98-2.81,1.78-5.21,5.47-3.04,8.67,1.22,3.04,4.94,2.61,7.6,2.5,10.52-1.22,20.89-3.59,31.46-4.49,3.35-.25,6.58-1.29,9.94-1.51,10.16-.64,20.22-2.37,30.41-2.67,14.82-.61,29.61-2.15,44.46-1.77,7.4.08,14.81.23,22.21.16,14.81-.49,29.58,1.02,44.36,1.65,10.48.31,20.82,2.16,31.27,2.9,11.95,1.45,23.93,2.87,35.74,5.29,2.81.51,5.76.79,8.57.06,2.92-1.12,4.31-5,2.26-7.53-1.04-1.68-4.07-3.9-1.57-5.72,4.57-2.32,10.14-1.99,14.61-4.71.04-4.73-5.51-6.67-7.4-10.55-.98-1.23-.01-2.51.69-3.58,2.63-.44,5.86.46,7.74-2,2.91-2.08,1.67-5.85.97-8.71,11.07-1.87,19.26-10.07,26.68-17.84,3.71,0,8.41.82,10.88-2.73,3.46-4.44,2.81-10.38-.08-14.9,2.32-4.51,5.81-9.03,10.96-10.35,4.81-1.59,9.92-1.17,14.87-.67-.84-5.57-6.28-8.74-8.67-13.33,1.83-4.4,4.54-8.35,6.91-12.47ZM868.07,327.54c-6.98.2-13.72-4.19-17.38-9.98,4.99.06,11.12-.78,13.54-5.84.07-2.6,2.19-.86,1.84.36-.47,5.02,4.3,7.65,7.57,10.43-1.6,1.95-3.61,3.48-5.57,5.02ZM887.67,318.13c-2.22-1.32-.44-3.84-.24-5.72.87-6.54-5.53-13.04-12.16-11.86-3.04.95-6.08,2.72-7.32,5.8-.7,1.09-1.45,3.39-3.13,2.69-1.59-1.21-4.13.32-5.29-1.59,2.49-4.57,7.18-7.29,10.43-11.18-2.83-3.24-7.53-3.85-11.12-5.98-1.86-1.94,1.47-4.43-.09-6.71-.62-.08-1.87-.23-2.5-.31-1.51,1.26-2.91,2.64-4.49,3.81-2.95.66-6.13.04-9.02,1.12-1.82.63-3.06,2.3-4.87,2.92-1.91-2.02-2.04-5.2-3.84-7.34-2.29-2.66-5.1-4.81-7.51-7.35-2.56.72-2.16,3.83-3.91,5.34-1.01-.66-2.02-1.3-3.03-1.94.84-7.46,3.49-14.57,4.7-21.97-2.65-6.16-6.86-11.67-8.45-18.24-.03-6.24-.75-12.56.23-18.74,3.48-10.63,10.94-20.03,20.71-25.53,2.39-1.61,5.47-1,7.97-2.34,2.81-1.45,5.9-2.36,9.07-2.43,9.09-.44,18.69-1.01,27.19,2.86,4.3,1.08,9.16,1.32,12.58,4.49-.56,6.17-.86,12.47.73,18.52,1.29,4.41,1.68,9.11,3.94,13.17,2.36,5.3,5.56,10.13,8.46,15.13.11,4.97-2.76,9.65-4.27,14.36-3.8-3.05-9.19-2.6-12.9.36.12,2.1,2.77,2.78,4.09,4.14,3.16,1.91,4.53,5.66,4.53,9.22-3.36.67-6.75-.1-10.01-.92-1.9,2.81.68,5.78,1.71,8.38-1.97,2.2-3.79,4.56-5.84,6.7-1.89,2.09-4.72,2.96-6.68,4.99,4.25,3.65,9.68,4.6,15.01,5.4-1.42,3.7-2.43,8.01-.57,11.75.44,1.53,2.86,1.55,3.12-.11,1.22-2.75,3.48-5.09,6.48-5.79,3.25-.19,6.5-.12,9.73-.55.27,7.3-3.07,15.43-9.96,18.69-4.69,1.76-9.67-.57-13.49-3.24ZM979.96,311.75c-3.78-2.52-7.93-4.86-10.63-8.6-.48-2.07,1.18-3.8,1.11-5.82,0-2.3.14-4.68-.47-6.91-1.31-2.02-2.99-3.83-4.98-5.2-4.2-.77-9.18-.72-12.2,2.78-2.94,2.55-1.87,6.86-2.03,10.29-.3,3.56,3.18,5.45,5.58,7.34-3.87,6.16-10.95,10.95-18.45,10.07-7.51-1.91-13.45-8.68-14.36-16.39,4.43-.85,8.91-1.52,13.38-2.18,3-.52,5.37,1.92,8.29,2.01.3-3.59-.38-7.07-1.3-10.49,5.54-1.1,8.73-6.27,11.54-10.69-1.95-2.64-5.46-1.35-8.16-2.27-2.44-1.07-4.55-2.75-6.62-4.39.92-4.22,1.56-9.73-2.8-12.3-1.53,1.81-2.8,3.84-4.55,5.45-1.52,1.3-3.61.57-5.38.52-.71-5.17,1.11-10.24,2.3-15.21-4.62-1.54-8.71,1.51-11.35,4.99-1.55-1.83-3.01-3.99-2.95-6.49,1.51-3.8,4.15-6.99,6.04-10.56.66-2.1-1.14-3.59-2.28-5.05-4.91-5.68-7.09-13.02-9.2-20.07-3.09-13.84,1.78-29.03,12.12-38.68,5.25-3.7,10.69-7.94,17.36-8.4,9.32-2.09,19.09-1.82,28.39.26,5.7.93,11.47,1.91,16.72,4.45,2.56,1.35,5.89,1.32,7.92,3.61-.25,4.8-1.76,9.47-1.45,14.34-.31,9.37,1.65,19.22-2.03,28.16-.94,2.57-2.68,4.72-3.85,7.17,2.01,6.08,6.89,10.6,9.49,16.37-2.02,1.95-5.34,1.63-7.46,3.61.96.69,1.89,1.41,2.79,2.19.2,2.5-.96,4.87-1.47,7.28-5.28.68-10.59.27-15.8-.53-2.9.58-.16,3.74-.62,5.56-.26,3.68,2.64,6.38,3.86,9.62-3.29,3.15-7.17,5.38-11.1,7.55,1.62,5.77,6.85,9.6,12.7,10.27-2.02,3.5-3.07,7.48-2.31,11.51,4.95-.89,6.62-6.83,11.54-7.5,4.96-1.35,10.16-.67,15.23-1.09,2.57.52,1.4,3.97,1.47,5.82-.02,6.76-4.98,11.99-9.9,15.98-3.98,3.09-9.48,3.16-14.09,1.63ZM1023.25,303.84c-3.25-4.22-4.56-10.15-2.8-15.21,5.51.89,11.18.19,16.64,1.48,4.37.84,5.86,5.83,9.91,7.4,3.06-3.35-.37-7.58-.09-11.33,1.3-1.31,3.49-1.1,5.06-2.05,3.44-1.95,6.38-5.69,6.18-9.79-4.41-.53-7.29-4.2-10.87-6.4,1.08-2.74,3.22-4.92,4.06-7.76.62-2.58.46-5.26.41-7.89-5.42.41-10.73,2.3-16.23,1.16-1.83-3.31-2.59-6.93-.85-10.45-1.81-1.18-3.82-1.98-5.85-2.7,3.01-5.54,6.76-10.66,9.98-16.08-2.65-3.91-5.97-7.9-6.09-12.85-.84-12.41,1.17-25.05-1.93-37.26,13.09-6.49,27.92-9.5,42.52-9.28,11.8.19,24.06,4.71,31.62,14.07,4.35,5.76,7.98,12.47,8.59,19.78,1.63,12.58-2.74,25.45-10.45,35.33-.73,1.16-2.18,2.13-1.86,3.7,1.74,3.97,4.44,7.44,6.57,11.21-.77,2.02-.85,4.69-3.07,5.71-2.94-2.9-7.69-6.98-11.84-3.98,1.49,4.29,3,8.68,2.88,13.29-.77,2.88-4.65,1.1-6.44.19-1.32-2.05-2.96-4.5-5.8-3.15-2.51,3.19-.66,7.45-.99,11.1-2.07,1.79-4.46,3.26-7.03,4.24-2.37.5-4.83.19-7.23.42-.22,2.79,1.9,4.86,3.28,7.07,1.77,2.87,5.07,4.04,7.89,5.61-.74,3.26-1.44,6.54-1.99,9.84,2.94,2.28,5.77-2.28,8.99-1.54,4.59,1.2,9.59.29,13.99,2.13-1.5,6.65-5.69,12.8-11.96,15.7-4.91,1.76-10.48.43-14.52-2.71-2.31-2.05-4.32-4.41-6.49-6.59,2.21-2.35,5.27-4.36,5.76-7.82,1.81-5.43-1.76-11.46-6.97-13.32-3.45-.76-7.53-.51-10.14,2.15-3.78,3.95-4.59,10.51-1.62,15.17-3.79,4.75-8.62,9.07-14.52,10.91-7.02,1.11-12.96-4.17-16.72-9.5ZM1206.19,244.28c-1.51,5.09-4.53,9.52-7.3,14,1.47,7.08,3.23,14.09,5.4,20.99-.99,1.07-1.95,2.61-3.65,2.37-.95-1.73-1.16-5.79-3.99-4.9-5.61,3-8.3,9.25-11.15,14.62-3.43-3.63-8.4-4.28-13.15-4.07-2.08-2.02-4.4-4.94-7.68-3.67-.21,2.17.28,4.35.15,6.51-3.22,2.27-7.74,2.97-10.18,6.15.66,5.86,8.27,7.29,10.32,12.49-1.92.13-5.1-2.06-5.93.74.73,6.38,8.4,8.19,13.77,7.81.58,1.63-.92,2.78-1.83,3.86-3.29,3.38-7.64,5.65-12.16,6.91-4,1-7.68-2.14-9.2-5.62,2.01-1.47,4.43-2.55,5.9-4.63,1.91-3.9,2.33-8.88-.15-12.64-2.06-3.49-6.49-5.14-10.39-4.47-3.15.33-5.52,2.84-7.27,5.28-2.27,3.47-1.49,7.81-.24,11.51-3.88,2.85-8.55,5.84-13.6,4.72-5.17-1.78-9.02-6.5-10.16-11.8-.46-2.33-2.01-5.33-.01-7.3,3.78,1.13,8.05-.22,11.58,1.91,2.58,1.27,3.33,4.22,4.8,6.45,1.68-.09,2.02-1.78,2.46-3.08,1.24-3.33.28-6.86-.23-10.23,3.28-1.07,7.03-.41,9.96-2.58,1.87-.68,2.78-2.42,2.71-4.34-4-2.77-7.5-6.26-10.51-10.06.56-2.9,3.07-5.47,1.69-8.65-3.58.37-7.17.61-10.76.64.61-5.69,4.99-9.62,9.75-12.2-2.63-4.6-9.27-3.44-13.49-2.01-1.6-4.39-2.58-9.01-5.05-13.04,6.53-8.47,11.14-18.3,13.67-28.67,1.02-5.6.37-11.31.41-16.97-.34-3.18,3.64-3.46,5.72-4.57,13.91-4.5,29.25-6.45,43.47-2.18,13.05,3.63,23.36,14.54,27.16,27.41,1.11,7.71,1.83,15.83-.82,23.33Z"/>
  <g>
    <path class="cls-1" d="M652.51,429.81c-1.47,249.19-2.94,498.38-4.41,747.57,10.51,17.2,21.02,34.4,31.53,51.6-52.86-38.63-105.72-77.26-158.57-115.89-.08-227.76-.15-455.52-.23-683.28h-129.66c-.75,51.2-1.39,102.55-1.9,154.07-2.11,210.62-2.15,418.68-.28,624.12,131.7,95.74,263.39,191.48,395.09,287.21V429.81h-131.56Z"/>
    <path class="cls-1" d="M1636.08,670.29c-34.96.1-69.93.2-104.89.3-.19-37.45-.37-74.9-.56-112.35-47.6-.47-95.21-.93-142.81-1.4.09,75.28.19,150.56.28,225.85,82.66.17,165.32.35,247.98.52v131.07h-247.98v484.32c-49.88,35.03-99.76,70.05-149.64,105.08V429.81h397.52c.03,80.16.07,160.32.1,240.48Z"/>
    <path class="cls-1" d="M1011.38,1640.58c65.08-40.23,130.16-80.47,195.24-120.7V429.81h-395.28v1090.07c66.68,40.23,133.36,80.47,200.04,120.7ZM942.39,550.51h133.9v902.73c-22.44,15.09-44.87,30.18-67.31,45.26-22.2-15.09-44.39-30.18-66.59-45.26v-902.73Z"/>
  </g>
</svg>